<svg width="520" height="520" viewBox="0 0 520 520" fill="none" xmlns="http://www.w3.org/2000/svg">
<circle cx="260" cy="260" r="260" fill="#D95D3A"/>
<path d="M228 144L228 169.044C228.002 174.431 228.257 179.753 228.755 185C233.204 231.913 257.026 272.888 292.001 301.539C313.104 318.826 338.268 331.627 365.686 338.536C369.97 339.616 374.212 336.823 375.112 332.497L384.889 285.503C385.789 281.177 382.997 276.965 378.734 275.802C375.522 274.926 372.373 273.934 369.291 272.832C323.064 256.306 292.026 215.078 292.001 169.056L292.001 144C292.001 139.871 288.872 136.472 284.856 136.045C284.575 136.015 284.289 136 284 136L236 136C235.31 136 234.64 136.087 234.001 136.252C230.55 137.14 228 140.272 228 144Z" fill="#FFF9C0"/>
<path d="M236.001 362.558C231.582 362.558 228.001 358.976 228.001 354.558V301.539C206.897 318.826 181.733 331.627 154.315 338.536C150.031 339.616 145.789 336.823 144.889 332.497L135.112 285.503C134.212 281.177 137.004 276.965 141.267 275.802C176.062 266.31 203.486 243.243 217.579 214.099C228.726 258.175 255.822 295.687 292.001 321.676V354.558C292.001 358.976 288.419 362.558 284.001 362.558H236.001Z" fill="#FFF9C0"/>
</svg>
