<svg width="520" height="520" viewBox="0 0 520 520" fill="none" xmlns="http://www.w3.org/2000/svg">
<circle cx="260" cy="260" r="260" fill="#9EEDB1"/>
<path fill-rule="evenodd" clip-rule="evenodd" d="M248.5 150C192.443 150 147 195.443 147 251.5C147 277.023 156.421 300.346 171.975 318.182L159.028 377.682C158.274 381.147 162.068 383.807 165.068 381.917L218.246 348.415C227.801 351.394 237.963 353 248.5 353H282.5C338.557 353 384 307.557 384 251.5C384 195.443 338.557 150 282.5 150H248.5ZM252 217C252 209.268 258.268 203 266 203C273.732 203 280 209.268 280 217V243C280 250.732 273.732 257 266 257C258.268 257 252 250.732 252 243V217ZM323 203C315.268 203 309 209.268 309 217V243C309 250.732 315.268 257 323 257C330.732 257 337 250.732 337 243V217C337 209.268 330.732 203 323 203Z" fill="black"/>
</svg>
